<?xml version="1.0" encoding="UTF-8"?>
<svg id="Calque_1" xmlns="http://www.w3.org/2000/svg" xmlns:xlink="http://www.w3.org/1999/xlink" version="1.1" viewBox="0 0 128 64">
  <!-- Generator: Adobe Illustrator 29.2.1, SVG Export Plug-In . SVG Version: 2.1.0 Build 116)  -->
  <defs>
    <style>
      .st0 {
        fill: #5f4be8;
      }

      .st1 {
        isolation: isolate;
      }
    </style>
  </defs>
  <g class="st1">
    <g>
      <path d="M75.1,52.7v-.5l4.9-5.1c.7-.8,1.3-1.5,1.8-2.1s.7-1.3.7-1.9,0-.8-.2-1.2c-.2-.3-.4-.6-.7-.9-.3-.2-.6-.4-1-.6s-.8-.2-1.3-.2c-.8,0-1.5.2-2,.5-.6.4-1,.9-1.2,1.6h-.4c.3-.9.7-1.5,1.4-1.9.7-.4,1.4-.6,2.3-.6s1,0,1.5.2c.4.2.8.4,1.2.6.3.3.6.6.8,1s.3.8.3,1.2,0,.8-.2,1.1c-.1.3-.3.7-.5,1-.2.3-.5.7-.9,1.1-.3.4-.7.8-1.2,1.3l-4.7,4.8h7.5v.4h-7.9Z"/>
      <path d="M90.7,52.9c-.9,0-1.6-.2-2.2-.6-.6-.4-1-.9-1.3-1.5-.3-.6-.5-1.3-.7-2.1-.1-.8-.2-1.5-.2-2.2s0-1.5.2-2.2c.1-.8.3-1.5.7-2.1.3-.6.8-1.1,1.3-1.5.6-.4,1.3-.6,2.2-.6s1.6.2,2.2.6c.6.4,1,.9,1.3,1.5.3.6.5,1.3.7,2.1.1.8.2,1.5.2,2.2s0,1.5-.2,2.2c-.1.8-.3,1.5-.7,2.1-.3.6-.8,1.1-1.3,1.5-.6.4-1.3.6-2.2.6ZM90.7,40.3c-.6,0-1.1.1-1.6.3-.4.2-.8.5-1.1.8-.3.3-.5.7-.7,1.2-.2.4-.3.9-.4,1.3,0,.5-.2.9-.2,1.3,0,.4,0,.8,0,1.1s0,.7,0,1.1c0,.4,0,.9.2,1.3,0,.5.2.9.4,1.3.2.4.4.8.7,1.2.3.3.7.6,1.1.8.4.2,1,.3,1.6.3s1.1-.1,1.6-.3c.4-.2.8-.5,1.1-.8.3-.3.5-.7.7-1.2.2-.4.3-.9.4-1.3,0-.5.2-.9.2-1.3,0-.4,0-.8,0-1.1s0-.7,0-1.1c0-.4,0-.9-.2-1.3,0-.5-.2-.9-.4-1.3-.2-.4-.4-.8-.7-1.2-.3-.3-.7-.6-1.1-.8-.4-.2-1-.3-1.6-.3Z"/>
      <path d="M97.7,52.7v-.5l4.9-5.1c.7-.8,1.3-1.5,1.8-2.1s.7-1.3.7-1.9,0-.8-.2-1.2c-.2-.3-.4-.6-.7-.9-.3-.2-.6-.4-1-.6s-.8-.2-1.3-.2c-.8,0-1.5.2-2,.5-.6.4-1,.9-1.2,1.6h-.4c.3-.9.7-1.5,1.4-1.9.7-.4,1.4-.6,2.3-.6s1,0,1.5.2c.4.2.8.4,1.2.6.3.3.6.6.8,1s.3.8.3,1.2,0,.8-.2,1.1c-.1.3-.3.7-.5,1-.2.3-.5.7-.9,1.1-.3.4-.7.8-1.2,1.3l-4.7,4.8h7.5v.4h-7.9Z"/>
      <path d="M117.2,48.9c0,.7-.1,1.2-.4,1.7-.2.5-.6.9-1,1.3-.4.3-.9.6-1.4.8s-1,.3-1.6.3c-.9,0-1.7-.2-2.3-.5s-1.1-.7-1.5-1.2l.4-.2c.4.5.8.9,1.4,1.1.6.3,1.3.4,2.1.4s.9,0,1.4-.2c.5-.2.9-.4,1.2-.7.4-.3.7-.7.9-1.1.2-.5.3-1,.3-1.6s0-1-.3-1.4c-.2-.4-.5-.8-.8-1.2-.3-.3-.8-.6-1.3-.8s-1.1-.3-1.7-.3-.9,0-1.4.2-.9.3-1.3.5v-5.8h6.6v.4h-6v4.9c.3-.2.7-.3,1.1-.3.4,0,.8,0,1.2,0,.7,0,1.3.1,1.8.3.5.2,1,.5,1.4.8.4.3.7.8.9,1.2.2.5.3,1,.3,1.6Z"/>
    </g>
  </g>
  <g class="st1">
    <path class="st0" d="M16.1,20.2c-1.2,0-2.2.3-3.2.8s-1.7,1.3-2.2,2.3-.8,2.1-.8,3.4.3,2.5.8,3.5,1.3,1.8,2.2,2.3c.9.5,2,.8,3.2.8s2,0,2.6-.3,1.2-.5,1.6-.8v3.8c-.4.2-1,.4-1.8.5-.8.2-1.6.2-2.4.2-2.1,0-3.9-.4-5.4-1.3-1.5-.9-2.6-2-3.4-3.5-.8-1.5-1.2-3.2-1.2-5.1s.4-3.5,1.2-5c.8-1.5,2-2.7,3.5-3.6s3.3-1.3,5.2-1.3,3.3.3,4.2.8v3.7c-.9-.8-2.3-1.2-4.1-1.2Z"/>
    <path class="st0" d="M25.4,35.9c-1-.5-1.8-1.3-2.3-2.2-.6-1-.8-2-.8-3.2s.3-2.3.8-3.2c.6-1,1.3-1.7,2.3-2.3s2.1-.8,3.4-.8,2.4.3,3.4.8c1,.5,1.8,1.3,2.3,2.3s.8,2,.8,3.2-.3,2.3-.8,3.2c-.5,1-1.3,1.7-2.3,2.2s-2.1.8-3.4.8-2.5-.2-3.4-.8ZM30.3,33.3c.5-.3.8-.7,1.1-1.1.2-.5.4-1,.4-1.7s-.1-1.2-.4-1.7-.6-.9-1.1-1.2-1-.4-1.6-.4-1.1.1-1.6.4-.8.7-1.1,1.2c-.3.5-.4,1.1-.4,1.7s.1,1.2.4,1.7.6.9,1.1,1.1,1,.4,1.6.4,1.2-.1,1.6-.4Z"/>
    <path class="st0" d="M50.3,16.4v20h-3.6v-2.1c-.2.4-.4.7-.8,1.1s-.9.7-1.4.9c-.6.2-1.2.4-1.9.4-1.1,0-2.1-.3-3-.8s-1.6-1.3-2.1-2.3-.8-2-.8-3.2.3-2.3.8-3.2,1.2-1.7,2.1-2.3,1.9-.8,3-.8,1.4.1,2,.4c.6.2,1,.5,1.4.9.4.3.6.7.7,1v-10s3.6,0,3.6,0ZM40.2,30.5c0,.7,0,1.3.4,1.8.3.5.7.9,1.2,1.2s1,.4,1.6.4,1.1,0,1.6-.4c.5-.3.9-.7,1.1-1.2.3-.5.4-1.1.4-1.8s0-1.3-.4-1.8c-.3-.5-.6-.9-1.1-1.2-.5-.3-1-.4-1.6-.4s-1.1.1-1.6.4-.9.7-1.2,1.2c-.3.5-.4,1.1-.4,1.8Z"/>
    <path class="st0" d="M55.6,32.4c.3.5.6.9,1.1,1.1.5.3,1,.4,1.7.4s1.6-.2,2.3-.5,1.2-.7,1.6-1.1l1.7,2.3c-.6.6-1.3,1.1-2.2,1.5-.9.3-2.1.5-3.5.5s-2.4-.3-3.4-.8-1.8-1.3-2.3-2.2c-.6-1-.8-2.1-.8-3.4s.3-2.2.8-3.1,1.3-1.7,2.2-2.2,2.1-.8,3.3-.8,2.3.2,3.2.7,1.6,1.2,2.2,2.1c.5.9.8,2,.8,3.3v.6h0c0,.1-8.9.1-8.9.1-.2.6,0,1.1.2,1.5ZM60.3,28c-.2-.4-.5-.7-.9-1s-.8-.4-1.3-.4-1,.1-1.4.4c-.4.2-.7.6-1,1-.2.4-.4.9-.4,1.3h5.3c0-.4,0-.9-.3-1.3Z"/>
    <path class="st0" d="M75.5,20.2c-1.2,0-2.2.3-3.2.8s-1.7,1.3-2.2,2.3-.8,2.1-.8,3.4.3,2.5.8,3.5,1.3,1.8,2.2,2.3c.9.5,2,.8,3.2.8s2,0,2.6-.3,1.2-.5,1.6-.8v3.8c-.4.2-1,.4-1.8.5-.8.2-1.6.2-2.4.2-2.1,0-3.9-.4-5.4-1.3-1.5-.9-2.6-2-3.4-3.5s-1.2-3.2-1.2-5.1.4-3.5,1.2-5c.8-1.5,2-2.7,3.5-3.6s3.3-1.3,5.2-1.3,3.3.3,4.2.8v3.7c-.8-.8-2.2-1.2-4.1-1.2Z"/>
    <path class="st0" d="M84.8,35.9c-1-.5-1.8-1.3-2.3-2.2s-.8-2-.8-3.2.3-2.3.8-3.2,1.3-1.7,2.3-2.3c1-.5,2.1-.8,3.4-.8s2.4.3,3.4.8,1.8,1.3,2.3,2.3.8,2,.8,3.2-.3,2.3-.8,3.2c-.5,1-1.3,1.7-2.3,2.2s-2.1.8-3.4.8-2.4-.2-3.4-.8ZM89.7,33.3c.5-.3.8-.7,1.1-1.1.2-.5.4-1,.4-1.7s0-1.2-.4-1.7c-.2-.5-.6-.9-1.1-1.2-.5-.3-1-.4-1.6-.4s-1.1.1-1.6.4-.8.7-1.1,1.2c-.3.5-.4,1.1-.4,1.7s0,1.2.4,1.7.6.9,1.1,1.1,1,.4,1.6.4,1.2-.1,1.6-.4Z"/>
    <path class="st0" d="M106.6,24.7c.8.3,1.4.9,1.9,1.6s.7,1.7.7,2.8v7.3h-3.7v-6.7c0-1-.2-1.7-.7-2.2-.4-.5-1.1-.7-1.8-.7s-1,.1-1.4.4-.8.6-1.1,1.1c-.3.5-.4,1-.4,1.6v6.5h-3.7v-11.9h3.7v1.9c0-.3.3-.7.7-1,.4-.3.9-.6,1.5-.9.6-.2,1.2-.3,1.8-.3.9-.1,1.7,0,2.5.5Z"/>
    <path class="st0" d="M112.6,21.2c0-1.1.2-2.1.7-2.8s1-1.4,1.8-1.7c.7-.4,1.5-.6,2.3-.6s1,0,1.5.1.8.2,1.1.3c.3.1.4.2.5.3l-1.3,2.8c0-.1-.2-.2-.4-.3-.2-.1-.5-.1-.8-.1s-.8.2-1.1.5c-.3.3-.5,1-.5,1.8v2.9h2.9v3h-2.9v8.9h-3.6v-8.9h-2.2v-3h2.2v-3.2h-.2Z"/>
  </g>
</svg>